<?xml version="1.0" encoding="UTF-8" standalone="no"?>
<svg
   xmlns:dc="http://purl.org/dc/elements/1.1/"
   xmlns:cc="http://creativecommons.org/ns#"
   xmlns:rdf="http://www.w3.org/1999/02/22-rdf-syntax-ns#"
   xmlns:svg="http://www.w3.org/2000/svg"
   xmlns="http://www.w3.org/2000/svg"
   xmlns:sodipodi="http://sodipodi.sourceforge.net/DTD/sodipodi-0.dtd"
   xmlns:inkscape="http://www.inkscape.org/namespaces/inkscape"
   width="178.58202"
   height="57.668671"
   version="1.1"
   viewBox="0 0 178.58202 57.667987"
   id="svg46"
   sodipodi:docname="poop-2024794.svg"
   inkscape:version="0.92.4 (5da689c313, 2019-01-14)">
  <metadata
     id="metadata52">
    <rdf:RDF>
      <cc:Work
         rdf:about="">
        <dc:format>image/svg+xml</dc:format>
        <dc:type
           rdf:resource="http://purl.org/dc/dcmitype/StillImage" />
        <dc:title></dc:title>
      </cc:Work>
    </rdf:RDF>
  </metadata>
  <defs
     id="defs50" />
  <sodipodi:namedview
     pagecolor="#ffffff"
     bordercolor="#666666"
     borderopacity="1"
     objecttolerance="10"
     gridtolerance="10"
     guidetolerance="10"
     inkscape:pageopacity="0"
     inkscape:pageshadow="2"
     inkscape:window-width="1920"
     inkscape:window-height="1017"
     id="namedview48"
     showgrid="false"
     fit-margin-top="0"
     fit-margin-left="0"
     fit-margin-right="0"
     fit-margin-bottom="0"
     inkscape:snap-text-baseline="false"
     inkscape:zoom="2.8426403"
     inkscape:cx="105.74701"
     inkscape:cy="-48.753814"
     inkscape:window-x="-8"
     inkscape:window-y="-8"
     inkscape:window-maximized="1"
     inkscape:current-layer="svg46" />
  <g
     id="g65"
     transform="matrix(0.2029419,0,0,0.2029419,-21.547049,-13.419045)">
    <path
       id="path32"
       d="m 128.23,227.04 c -22.515,15.291 -29.891,45.953 -12.212,76.049 22.791,38.799 82.302,47.324 127.67,47.183 48.914,-0.15151 105.58,-5.4979 134.33,-39.967 16.241,-19.467 16.411,-55.834 1.1102,-76.049 -7.7489,-10.237 -26.74,-12.182 -41.077,-14.433 -27.983,-4.3919 -60.376,10.254 -91.539,7.2303 -45.61,-4.4256 -91.439,-18.248 -118.29,-0.0141 z"
       inkscape:connector-curvature="0"
       style="fill:#88664e;fill-rule:evenodd" />
    <path
       id="path34"
       d="m 365.25,212.6 c 0,13.612 -4.5848,26.354 -17.165,36.284 -21.136,16.684 -59.783,26.442 -100.24,26.442 -40.408,0 -78.029,-10.29 -98.849,-26.94 -12.431,-9.9405 -17.444,-22.148 -17.444,-35.787 0,-12.176 5.7033,-24.135 15.702,-33.188 19.961,-18.072 57.04,-27.873 100.04,-27.873 38.206,0 74.184,9.1701 95.822,23.77 14.91,10.06 22.137,22.408 22.137,37.291 z"
       inkscape:connector-curvature="0"
       style="fill:#9a7863" />
    <path
       id="path36"
       d="m 222.42,68.259 c 2.4796,8.7787 -8.1684,25.5 0.53684,32.985 13.202,11.351 36.666,9.3818 58.015,10.693 19.524,1.1993 37.19,5.3769 45.43,20.177 4.7124,8.4642 6.8124,19.432 3.6907,29.698 -2.6212,8.6203 -9.5787,16.746 -15.348,22.481 -20.412,20.289 -56.056,23.45 -84.375,18.318 -22.524,-4.0815 -46.91,-17.019 -57.73,-37.192 -9.9947,-18.633 -9.0818,-44.775 0.87648,-63.427 9.3266,-17.469 45.544,-43.562 48.903,-33.733 z"
       inkscape:connector-curvature="0"
       style="fill:#a78674;fill-rule:evenodd" />
    <circle
       id="circle38"
       r="34.139"
       cy="218.99001"
       cx="199"
       style="fill:#ffffff" />
    <ellipse
       id="ellipse40"
       ry="17.763"
       rx="16.653"
       cy="232.59"
       cx="208.72" />
    <circle
       id="circle42"
       r="34.139"
       cy="218.99001"
       cx="297"
       style="fill:#ffffff" />
    <ellipse
       id="ellipse44"
       ry="17.763"
       rx="17.208"
       cy="233.25999"
       cx="288.16" />
  </g>
  <text
     xml:space="preserve"
     style="font-style:normal;font-weight:normal;font-size:40px;line-height:1.25;font-family:sans-serif;letter-spacing:0px;word-spacing:0px;fill:#000000;fill-opacity:1;stroke:none"
     x="62.683582"
     y="40.767586"
     id="text56"><tspan
       sodipodi:role="line"
       id="tspan54"
       x="62.683582"
       y="40.767586"
       style="font-style:normal;font-variant:normal;font-weight:normal;font-stretch:normal;font-family:monospace;-inkscape-font-specification:monospace">feces</tspan></text>
</svg>
